<mxfile host="app.diagrams.net" modified="2023-12-03T17:00:03.987Z" agent="Mozilla/5.0 (Windows NT 10.0; Win64; x64) AppleWebKit/537.36 (KHTML, like Gecko) Chrome/117.0.0.0 Safari/537.36" etag="ZEG_fALEYQOPFhild2iJ" version="22.1.5" type="device">
  <diagram name="Trang-1" id="XM6l1s70aCX7veN3Cljx">
    <mxGraphModel dx="1006" dy="559" grid="1" gridSize="10" guides="1" tooltips="1" connect="1" arrows="1" fold="1" page="1" pageScale="1" pageWidth="827" pageHeight="1169" math="0" shadow="0">
      <root>
        <mxCell id="0" />
        <mxCell id="1" parent="0" />
        <mxCell id="4C2emofRbXxbaKHVTyBQ-3" value="" style="edgeStyle=orthogonalEdgeStyle;rounded=0;orthogonalLoop=1;jettySize=auto;html=1;" edge="1" parent="1" source="4C2emofRbXxbaKHVTyBQ-1" target="4C2emofRbXxbaKHVTyBQ-2">
          <mxGeometry relative="1" as="geometry" />
        </mxCell>
        <mxCell id="4C2emofRbXxbaKHVTyBQ-1" value="&lt;font style=&quot;vertical-align: inherit;&quot;&gt;&lt;font style=&quot;vertical-align: inherit;&quot;&gt;Start&lt;/font&gt;&lt;/font&gt;" style="ellipse;whiteSpace=wrap;html=1;" vertex="1" parent="1">
          <mxGeometry x="260" y="30" width="120" height="80" as="geometry" />
        </mxCell>
        <mxCell id="4C2emofRbXxbaKHVTyBQ-30" value="" style="edgeStyle=orthogonalEdgeStyle;rounded=0;orthogonalLoop=1;jettySize=auto;html=1;" edge="1" parent="1" source="4C2emofRbXxbaKHVTyBQ-2" target="4C2emofRbXxbaKHVTyBQ-29">
          <mxGeometry relative="1" as="geometry" />
        </mxCell>
        <mxCell id="4C2emofRbXxbaKHVTyBQ-2" value="&lt;font style=&quot;vertical-align: inherit;&quot;&gt;&lt;font style=&quot;vertical-align: inherit;&quot;&gt;Struct Student&lt;/font&gt;&lt;/font&gt;" style="whiteSpace=wrap;html=1;" vertex="1" parent="1">
          <mxGeometry x="260" y="160" width="120" height="60" as="geometry" />
        </mxCell>
        <mxCell id="4C2emofRbXxbaKHVTyBQ-35" value="" style="edgeStyle=orthogonalEdgeStyle;rounded=0;orthogonalLoop=1;jettySize=auto;html=1;" edge="1" parent="1" source="4C2emofRbXxbaKHVTyBQ-29" target="4C2emofRbXxbaKHVTyBQ-34">
          <mxGeometry relative="1" as="geometry" />
        </mxCell>
        <mxCell id="4C2emofRbXxbaKHVTyBQ-29" value="name [50];&lt;br&gt;age;&lt;br&gt;phoneNumber[50];&lt;br&gt;emaiil[50];&lt;br&gt;" style="whiteSpace=wrap;html=1;" vertex="1" parent="1">
          <mxGeometry x="260" y="260" width="120" height="70" as="geometry" />
        </mxCell>
        <mxCell id="4C2emofRbXxbaKHVTyBQ-37" value="" style="edgeStyle=orthogonalEdgeStyle;rounded=0;orthogonalLoop=1;jettySize=auto;html=1;" edge="1" parent="1" source="4C2emofRbXxbaKHVTyBQ-34" target="4C2emofRbXxbaKHVTyBQ-36">
          <mxGeometry relative="1" as="geometry" />
        </mxCell>
        <mxCell id="4C2emofRbXxbaKHVTyBQ-34" value="name = Nam" style="whiteSpace=wrap;html=1;" vertex="1" parent="1">
          <mxGeometry x="245" y="380" width="150" height="60" as="geometry" />
        </mxCell>
        <mxCell id="4C2emofRbXxbaKHVTyBQ-39" value="" style="edgeStyle=orthogonalEdgeStyle;rounded=0;orthogonalLoop=1;jettySize=auto;html=1;" edge="1" parent="1" source="4C2emofRbXxbaKHVTyBQ-36" target="4C2emofRbXxbaKHVTyBQ-38">
          <mxGeometry relative="1" as="geometry" />
        </mxCell>
        <mxCell id="4C2emofRbXxbaKHVTyBQ-36" value="age = 25" style="whiteSpace=wrap;html=1;" vertex="1" parent="1">
          <mxGeometry x="260" y="490" width="120" height="60" as="geometry" />
        </mxCell>
        <mxCell id="4C2emofRbXxbaKHVTyBQ-41" value="" style="edgeStyle=orthogonalEdgeStyle;rounded=0;orthogonalLoop=1;jettySize=auto;html=1;" edge="1" parent="1" source="4C2emofRbXxbaKHVTyBQ-38" target="4C2emofRbXxbaKHVTyBQ-40">
          <mxGeometry relative="1" as="geometry" />
        </mxCell>
        <mxCell id="4C2emofRbXxbaKHVTyBQ-38" value="phoneNumber = 0948374723" style="whiteSpace=wrap;html=1;" vertex="1" parent="1">
          <mxGeometry x="260" y="585" width="120" height="60" as="geometry" />
        </mxCell>
        <mxCell id="4C2emofRbXxbaKHVTyBQ-43" value="" style="edgeStyle=orthogonalEdgeStyle;rounded=0;orthogonalLoop=1;jettySize=auto;html=1;" edge="1" parent="1" source="4C2emofRbXxbaKHVTyBQ-40" target="4C2emofRbXxbaKHVTyBQ-42">
          <mxGeometry relative="1" as="geometry" />
        </mxCell>
        <mxCell id="4C2emofRbXxbaKHVTyBQ-40" value="email = nam2374@.com" style="whiteSpace=wrap;html=1;" vertex="1" parent="1">
          <mxGeometry x="260" y="690" width="120" height="60" as="geometry" />
        </mxCell>
        <mxCell id="4C2emofRbXxbaKHVTyBQ-45" value="" style="edgeStyle=orthogonalEdgeStyle;rounded=0;orthogonalLoop=1;jettySize=auto;html=1;" edge="1" parent="1" source="4C2emofRbXxbaKHVTyBQ-42" target="4C2emofRbXxbaKHVTyBQ-44">
          <mxGeometry relative="1" as="geometry" />
        </mxCell>
        <mxCell id="4C2emofRbXxbaKHVTyBQ-42" value="printf name,age,&lt;br&gt;phoneNumber;&lt;br&gt;email" style="shape=parallelogram;perimeter=parallelogramPerimeter;whiteSpace=wrap;html=1;fixedSize=1;" vertex="1" parent="1">
          <mxGeometry x="260" y="820" width="120" height="60" as="geometry" />
        </mxCell>
        <mxCell id="4C2emofRbXxbaKHVTyBQ-44" value="End" style="ellipse;whiteSpace=wrap;html=1;" vertex="1" parent="1">
          <mxGeometry x="260" y="940" width="120" height="80" as="geometry" />
        </mxCell>
      </root>
    </mxGraphModel>
  </diagram>
</mxfile>
